<svg width="680" height="420" viewBox="0 0 680 420" xmlns="http://www.w3.org/2000/svg" role="img">
<title>pixy capabilities and development flowchart</title>
<desc>A left-to-right pixy analysis pipeline (inputs, pixy core, outputs) plus a parallel development and distribution band. Capabilities added since the original pixy release are badged "new".</desc>
<style>
  text{font-family:'Helvetica Neue',Arial,sans-serif}
  .t{font-weight:400;font-size:14px;fill:#2C2C2A}
  .th{font-weight:500;font-size:14px;fill:#2C2C2A}
  .ts{font-weight:400;font-size:12px;fill:#5F5E5A}
  .c-teal>rect{fill:#E1F5EE;stroke:#0F6E56;stroke-width:.5}
  .c-teal .th{fill:#085041}.c-teal .ts{fill:#0F6E56}
  .c-purple>rect{fill:#EEEDFE;stroke:#534AB7;stroke-width:.5}
  .c-purple .th{fill:#3C3489}.c-purple .ts{fill:#534AB7}
  .c-coral>rect{fill:#FAECE7;stroke:#993C1D;stroke-width:.5}
  .c-coral .th{fill:#712B13}.c-coral .ts{fill:#993C1D}
  .c-blue>rect{fill:#E6F1FB;stroke:#185FA5;stroke-width:.5}
  .c-blue .th{fill:#0C447C}.c-blue .ts{fill:#185FA5}
  .c-gray>rect{fill:#F1EFE8;stroke:#5F5E5A;stroke-width:.5}
  .c-gray .ts{fill:#444441}
  .c-amber>rect{fill:#FAC775;stroke:#854F0B;stroke-width:.5}
  .c-amber .ts{fill:#633806}
</style>
<defs><marker id="arrow" viewBox="0 0 10 10" refX="8" refY="5" markerWidth="6" markerHeight="6" orient="auto-start-reverse"><path d="M2 1L8 5L2 9" fill="none" stroke="#888780" stroke-width="1.5" stroke-linecap="round" stroke-linejoin="round"/></marker></defs>

<rect x="0" y="0" width="680" height="420" fill="#ffffff"/>

<text class="th" x="130" y="34" text-anchor="middle">Inputs</text>
<text class="th" x="385" y="34" text-anchor="middle">pixy core</text>
<text class="th" x="590" y="34" text-anchor="middle">Outputs</text>

<g class="c-teal"><rect x="24" y="56" width="212" height="104" rx="6"/>
<text class="th" x="36" y="78">Genotype VCF</text>
<text class="ts" x="36" y="94">bgzip + tabix/CSI index</text>
<text class="ts" x="36" y="116">Callable-site source:</text>
<text class="ts" x="44" y="134">&#8226; all-sites VCF</text>
<text class="ts" x="44" y="152">&#8226; GVCF blocks</text>
</g>
<g class="c-amber"><rect x="186" y="84" width="34" height="15" rx="7"/><text class="ts" x="203" y="95" text-anchor="middle">new</text></g>

<g class="c-teal"><rect x="24" y="172" width="212" height="44" rx="6"/>
<text class="th" x="36" y="194">Populations file</text>
<text class="ts" x="36" y="210">sample &#8594; population (TSV)</text>
</g>

<g class="c-teal"><rect x="24" y="228" width="212" height="62" rx="6"/>
<text class="th" x="36" y="250">Optional companions</text>
<text class="ts" x="44" y="268">BED &#8594; custom windows</text>
<text class="ts" x="44" y="284">sites &#8594; site subset</text>
</g>
<g class="c-amber"><rect x="196" y="258" width="34" height="15" rx="7"/><text class="ts" x="213" y="269" text-anchor="middle">new</text></g>
<g class="c-amber"><rect x="196" y="274" width="34" height="15" rx="7"/><text class="ts" x="213" y="285" text-anchor="middle">new</text></g>

<line x1="240" y1="174" x2="296" y2="174" stroke="#888780" stroke-width="1.5" marker-end="url(#arrow)"/>

<g class="c-purple"><rect x="300" y="56" width="170" height="60" rx="6"/>
<text class="th" x="312" y="78">Windowing</text>
<text class="ts" x="312" y="94">window / BED / region</text>
<text class="ts" x="312" y="110">chromosome subset</text>
</g>
<g class="c-purple"><rect x="300" y="126" width="170" height="44" rx="6"/>
<text class="th" x="312" y="148">Statistics</text>
<text class="ts" x="312" y="164">select via --stats</text>
</g>
<g class="c-purple"><rect x="300" y="180" width="170" height="112" rx="6"/>
<text class="th" x="312" y="202">Options</text>
<text class="ts" x="312" y="224">Hudson FST</text>
<text class="ts" x="312" y="244">multiallelic SNPs</text>
<text class="ts" x="312" y="264">ploidy handling</text>
<text class="ts" x="312" y="284">multicore</text>
</g>
<g class="c-amber"><rect x="430" y="214" width="34" height="15" rx="7"/><text class="ts" x="447" y="225" text-anchor="middle">new</text></g>
<g class="c-amber"><rect x="430" y="234" width="34" height="15" rx="7"/><text class="ts" x="447" y="245" text-anchor="middle">new</text></g>
<g class="c-amber"><rect x="430" y="254" width="34" height="15" rx="7"/><text class="ts" x="447" y="265" text-anchor="middle">new</text></g>
<g class="c-amber"><rect x="430" y="274" width="34" height="15" rx="7"/><text class="ts" x="447" y="285" text-anchor="middle">new</text></g>

<line x1="474" y1="174" x2="510" y2="174" stroke="#888780" stroke-width="1.5" marker-end="url(#arrow)"/>

<text class="ts" x="516" y="48">one TSV per statistic</text>
<g class="c-coral"><rect x="516" y="56" width="148" height="32" rx="5"/>
<text class="th" x="528" y="76">&#960;</text><text class="ts" x="546" y="76">within-pop</text>
</g>
<g class="c-coral"><rect x="516" y="92" width="148" height="32" rx="5"/>
<text class="th" x="528" y="112">dxy</text><text class="ts" x="554" y="112">between-pop</text>
</g>
<g class="c-coral"><rect x="516" y="128" width="148" height="32" rx="5"/>
<text class="th" x="528" y="148">FST</text><text class="ts" x="556" y="148">WC / Hudson</text>
</g>
<g class="c-coral"><rect x="516" y="164" width="148" height="32" rx="5"/>
<text class="th" x="528" y="184">Watterson &#952;</text>
</g>
<g class="c-amber"><rect x="620" y="172" width="34" height="15" rx="7"/><text class="ts" x="637" y="183" text-anchor="middle">new</text></g>
<g class="c-coral"><rect x="516" y="200" width="148" height="32" rx="5"/>
<text class="th" x="528" y="220">Tajima's D</text>
</g>
<g class="c-amber"><rect x="620" y="208" width="34" height="15" rx="7"/><text class="ts" x="637" y="219" text-anchor="middle">new</text></g>

<g class="c-gray"><rect x="516" y="238" width="148" height="52" rx="5"/>
<text class="ts" x="528" y="256">raw count / component</text>
<text class="ts" x="528" y="271">columns &#8594; exact</text>
<text class="ts" x="528" y="286">window aggregation</text>
</g>

<line x1="24" y1="308" x2="664" y2="308" stroke="#B4B2A9" stroke-width="0.5"/>
<text class="th" x="24" y="328">Development &amp; distribution</text>

<g class="c-blue"><rect x="24" y="338" width="150" height="58" rx="6"/>
<text class="th" x="36" y="360">Contribute</text>
<text class="ts" x="36" y="378">GitHub fork + PR</text>
<text class="ts" x="36" y="392">poetry install</text>
</g>
<g class="c-amber"><rect x="134" y="345" width="34" height="15" rx="7"/><text class="ts" x="151" y="356" text-anchor="middle">new</text></g>
<line x1="174" y1="367" x2="198" y2="367" stroke="#888780" stroke-width="1.5" marker-end="url(#arrow)"/>
<g class="c-blue"><rect x="198" y="338" width="150" height="58" rx="6"/>
<text class="th" x="210" y="360">Local checks</text>
<text class="ts" x="210" y="378">ruff &#183; mypy &#183; pytest</text>
</g>
<g class="c-amber"><rect x="308" y="345" width="34" height="15" rx="7"/><text class="ts" x="325" y="356" text-anchor="middle">new</text></g>
<line x1="348" y1="367" x2="372" y2="367" stroke="#888780" stroke-width="1.5" marker-end="url(#arrow)"/>
<g class="c-blue"><rect x="372" y="338" width="150" height="58" rx="6"/>
<text class="th" x="384" y="360">CI on every PR</text>
<text class="ts" x="384" y="378">Python 3.10&#8211;3.14</text>
</g>
<g class="c-amber"><rect x="482" y="345" width="34" height="15" rx="7"/><text class="ts" x="499" y="356" text-anchor="middle">new</text></g>
<line x1="522" y1="367" x2="546" y2="367" stroke="#888780" stroke-width="1.5" marker-end="url(#arrow)"/>
<g class="c-blue"><rect x="546" y="338" width="118" height="58" rx="6"/>
<text class="th" x="558" y="360">Distribute</text>
<text class="ts" x="558" y="378">conda-forge</text>
</g>
<g class="c-amber"><rect x="624" y="345" width="34" height="15" rx="7"/><text class="ts" x="641" y="356" text-anchor="middle">new</text></g>

<g class="c-amber"><rect x="24" y="404" width="34" height="15" rx="7"/><text class="ts" x="41" y="415" text-anchor="middle">new</text></g>
<text class="ts" x="66" y="415">added since the original pixy release (Korunes &amp; Samuk 2021)</text>
</svg>
